<svg width="500" height="150" viewBox="0 0 500 150" fill="none" xmlns="http://www.w3.org/2000/svg">
<g clip-path="url(#clip0_1_2)">
<g filter="url(#filter0_d_1_2)">
<path d="M116.264 48.568V115H107.528V65.464L85.448 115H79.304L57.128 65.368V115H48.392V48.568H57.8L82.376 103.48L106.952 48.568H116.264ZM183.688 115H174.952L139.816 61.72V115H131.08V47.992H139.816L174.952 101.176V47.992H183.688V115ZM245.389 115.672C240.973 115.672 237.005 114.904 233.485 113.368C230.029 111.768 227.309 109.592 225.325 106.84C223.341 104.024 222.317 100.792 222.253 97.144H231.565C231.885 100.28 233.165 102.936 235.405 105.112C237.709 107.224 241.037 108.28 245.389 108.28C249.549 108.28 252.813 107.256 255.181 105.208C257.613 103.096 258.829 100.408 258.829 97.144C258.829 94.584 258.125 92.504 256.717 90.904C255.309 89.304 253.549 88.088 251.437 87.256C249.325 86.424 246.477 85.528 242.893 84.568C238.477 83.416 234.925 82.264 232.237 81.112C229.613 79.96 227.341 78.168 225.421 75.736C223.565 73.24 222.637 69.912 222.637 65.752C222.637 62.104 223.565 58.872 225.421 56.056C227.277 53.24 229.869 51.064 233.197 49.528C236.589 47.992 240.461 47.224 244.813 47.224C251.085 47.224 256.205 48.792 260.173 51.928C264.205 55.064 266.477 59.224 266.989 64.408H257.389C257.069 61.848 255.725 59.608 253.357 57.688C250.989 55.704 247.853 54.712 243.949 54.712C240.301 54.712 237.325 55.672 235.021 57.592C232.717 59.448 231.565 62.072 231.565 65.464C231.565 67.896 232.237 69.88 233.581 71.416C234.989 72.952 236.685 74.136 238.669 74.968C240.717 75.736 243.565 76.632 247.213 77.656C251.629 78.872 255.181 80.088 257.869 81.304C260.557 82.456 262.861 84.28 264.781 86.776C266.701 89.208 267.661 92.536 267.661 96.76C267.661 100.024 266.797 103.096 265.069 105.976C263.341 108.856 260.781 111.192 257.389 112.984C253.997 114.776 249.997 115.672 245.389 115.672ZM303.461 115.864C298.533 115.864 294.053 114.744 290.021 112.504C286.053 110.264 282.917 107.096 280.613 103C278.373 98.84 277.253 94.04 277.253 88.6C277.253 83.224 278.405 78.488 280.709 74.392C283.077 70.232 286.277 67.064 290.309 64.888C294.341 62.648 298.853 61.528 303.845 61.528C308.837 61.528 313.349 62.648 317.381 64.888C321.413 67.064 324.581 70.2 326.885 74.296C329.253 78.392 330.437 83.16 330.437 88.6C330.437 94.04 329.221 98.84 326.789 103C324.421 107.096 321.189 110.264 317.093 112.504C312.997 114.744 308.453 115.864 303.461 115.864ZM303.461 108.184C306.597 108.184 309.541 107.448 312.293 105.976C315.045 104.504 317.253 102.296 318.917 99.352C320.645 96.408 321.509 92.824 321.509 88.6C321.509 84.376 320.677 80.792 319.013 77.848C317.349 74.904 315.173 72.728 312.485 71.32C309.797 69.848 306.885 69.112 303.749 69.112C300.549 69.112 297.605 69.848 294.917 71.32C292.293 72.728 290.181 74.904 288.581 77.848C286.981 80.792 286.181 84.376 286.181 88.6C286.181 92.888 286.949 96.504 288.485 99.448C290.085 102.392 292.197 104.6 294.821 106.072C297.445 107.48 300.325 108.184 303.461 108.184ZM350.659 43.96V115H341.923V43.96H350.659ZM362.284 88.504C362.284 83.128 363.372 78.424 365.548 74.392C367.724 70.296 370.7 67.128 374.476 64.888C378.316 62.648 382.572 61.528 387.244 61.528C391.852 61.528 395.852 62.52 399.244 64.504C402.636 66.488 405.164 68.984 406.828 71.992V62.392H415.66V115H406.828V105.208C405.1 108.28 402.508 110.84 399.052 112.888C395.66 114.872 391.692 115.864 387.148 115.864C382.476 115.864 378.252 114.712 374.476 112.408C370.7 110.104 367.724 106.872 365.548 102.712C363.372 98.552 362.284 93.816 362.284 88.504ZM406.828 88.6C406.828 84.632 406.028 81.176 404.428 78.232C402.828 75.288 400.652 73.048 397.9 71.512C395.212 69.912 392.236 69.112 388.972 69.112C385.708 69.112 382.732 69.88 380.044 71.416C377.356 72.952 375.212 75.192 373.612 78.136C372.012 81.08 371.212 84.536 371.212 88.504C371.212 92.536 372.012 96.056 373.612 99.064C375.212 102.008 377.356 104.28 380.044 105.88C382.732 107.416 385.708 108.184 388.972 108.184C392.236 108.184 395.212 107.416 397.9 105.88C400.652 104.28 402.828 102.008 404.428 99.064C406.028 96.056 406.828 92.568 406.828 88.6ZM439.159 70.936C440.695 67.928 442.871 65.592 445.687 63.928C448.567 62.264 452.055 61.432 456.151 61.432V70.456H453.847C444.055 70.456 439.159 75.768 439.159 86.392V115H430.423V62.392H439.159V70.936Z" fill="black"/>
</g>
</g>
<defs>
<filter id="filter0_d_1_2" x="44.392" y="43.96" width="415.759" height="79.904" filterUnits="userSpaceOnUse" color-interpolation-filters="sRGB">
<feFlood flood-opacity="0" result="BackgroundImageFix"/>
<feColorMatrix in="SourceAlpha" type="matrix" values="0 0 0 0 0 0 0 0 0 0 0 0 0 0 0 0 0 0 127 0" result="hardAlpha"/>
<feOffset dy="4"/>
<feGaussianBlur stdDeviation="2"/>
<feComposite in2="hardAlpha" operator="out"/>
<feColorMatrix type="matrix" values="0 0 0 0 0 0 0 0 0 0 0 0 0 0 0 0 0 0 0.25 0"/>
<feBlend mode="normal" in2="BackgroundImageFix" result="effect1_dropShadow_1_2"/>
<feBlend mode="normal" in="SourceGraphic" in2="effect1_dropShadow_1_2" result="shape"/>
</filter>
<clipPath id="clip0_1_2">
<rect width="500" height="150" fill="white"/>
</clipPath>
</defs>
</svg>
