<svg width="260" height="51" viewBox="0 0 260 51" fill="none" xmlns="http://www.w3.org/2000/svg">
<path d="M45.616 49H36.4L35.44 31.016C35.1413 25.64 34.992 21.0747 34.992 17.32C34.992 15.3147 35.0133 13.864 35.056 12.968L27.568 44.264H18.672L10.672 12.904C10.8427 15.5067 10.928 18.4293 10.928 21.672C10.928 25.128 10.8427 28.3067 10.672 31.208L9.712 49H0.559998L4.016 4.712H15.984L23.28 35.24L30.128 4.712H42.224L45.616 49Z" fill="#F4B400"/>
<path d="M86.2675 49H74.1715L60.0915 13.864C60.4755 16.8933 60.7742 19.752 60.9875 22.44C61.2435 25.0853 61.3715 28.2 61.3715 31.784V49H52.8595V4.712H64.6995L79.0355 39.912C78.1822 34.1947 77.7555 28.9467 77.7555 24.168V4.712H86.2675V49Z" fill="#F4B400"/>
<path d="M124.738 3.688C127.938 3.688 130.712 4.15734 133.059 5.096C135.448 5.992 137.645 7.37867 139.65 9.256L135.171 14.44C133.592 13.16 132.013 12.2213 130.434 11.624C128.856 11.0267 127.17 10.728 125.378 10.728C123.416 10.728 121.837 11.1547 120.643 12.008C119.491 12.8187 118.914 13.992 118.914 15.528C118.914 16.5947 119.149 17.4693 119.618 18.152C120.13 18.8347 121.005 19.4747 122.243 20.072C123.48 20.6693 125.336 21.352 127.811 22.12C132.205 23.528 135.491 25.2773 137.667 27.368C139.843 29.416 140.93 32.36 140.93 36.2C140.93 38.9307 140.248 41.3413 138.882 43.432C137.517 45.48 135.533 47.1013 132.93 48.296C130.328 49.448 127.277 50.024 123.778 50.024C120.28 50.024 117.165 49.4693 114.434 48.36C111.704 47.2507 109.357 45.736 107.395 43.816L112.194 38.504C113.901 39.9547 115.672 41.064 117.507 41.832C119.341 42.5573 121.346 42.92 123.522 42.92C125.826 42.92 127.661 42.3867 129.027 41.32C130.435 40.2533 131.139 38.76 131.139 36.84C131.139 35.6453 130.882 34.664 130.37 33.896C129.901 33.0853 129.069 32.36 127.874 31.72C126.68 31.08 124.952 30.4187 122.69 29.736C117.869 28.2427 114.413 26.4507 112.322 24.36C110.274 22.2693 109.25 19.5387 109.25 16.168C109.25 13.6933 109.912 11.5173 111.234 9.64C112.557 7.72 114.392 6.248 116.738 5.224C119.085 4.2 121.752 3.688 124.738 3.688Z" fill="#00B4D8"/>
<path d="M161.502 14.056C166.579 14.056 170.547 15.656 173.406 18.856C176.265 22.0133 177.694 26.408 177.694 32.04C177.694 35.624 177.033 38.7813 175.71 41.512C174.43 44.2 172.553 46.2907 170.078 47.784C167.646 49.2773 164.766 50.024 161.438 50.024C156.361 50.024 152.371 48.4453 149.47 45.288C146.611 42.088 145.182 37.672 145.182 32.04C145.182 28.456 145.822 25.32 147.102 22.632C148.425 19.9013 150.302 17.7893 152.734 16.296C155.209 14.8027 158.131 14.056 161.502 14.056ZM161.502 20.84C159.198 20.84 157.47 21.7573 156.318 23.592C155.209 25.384 154.654 28.2 154.654 32.04C154.654 35.88 155.209 38.7173 156.318 40.552C157.47 42.344 159.177 43.24 161.438 43.24C163.699 43.24 165.385 42.344 166.494 40.552C167.646 38.7173 168.222 35.88 168.222 32.04C168.222 28.2 167.667 25.384 166.558 23.592C165.449 21.7573 163.763 20.84 161.502 20.84Z" fill="#00B4D8"/>
<path d="M193.053 50.024C190.28 50.024 188.125 49.2347 186.589 47.656C185.053 46.0347 184.285 43.752 184.285 40.808V1.576L193.373 0.552002V40.552C193.373 42.0453 193.992 42.792 195.229 42.792C195.912 42.792 196.509 42.664 197.021 42.408L198.877 48.872C197.128 49.64 195.186 50.024 193.053 50.024Z" fill="#00B4D8"/>
<path d="M229.15 39.592C229.15 40.9147 229.342 41.896 229.726 42.536C230.11 43.1333 230.75 43.5813 231.646 43.88L229.726 49.896C227.721 49.7253 226.078 49.256 224.798 48.488C223.561 47.72 222.601 46.5253 221.918 44.904C219.699 48.3173 216.307 50.024 211.742 50.024C208.371 50.024 205.683 49.064 203.678 47.144C201.715 45.1813 200.734 42.6427 200.734 39.528C200.734 35.816 202.078 32.9787 204.766 31.016C207.454 29.0533 211.315 28.072 216.35 28.072H220.254V26.408C220.254 24.3173 219.785 22.8667 218.846 22.056C217.907 21.2453 216.35 20.84 214.174 20.84C211.785 20.84 208.798 21.4373 205.214 22.632L203.166 16.552C207.39 14.888 211.571 14.056 215.71 14.056C220.318 14.056 223.71 15.0587 225.886 17.064C228.062 19.0267 229.15 21.9707 229.15 25.896V39.592ZM214.238 43.496C216.798 43.496 218.803 42.2373 220.254 39.72V33.256H217.246C212.339 33.256 209.886 35.0907 209.886 38.76C209.886 40.2533 210.249 41.4267 210.974 42.28C211.742 43.0907 212.83 43.496 214.238 43.496Z" fill="#00B4D8"/>
<path d="M255.766 14.12C256.79 14.12 257.921 14.2907 259.158 14.632L257.622 23.4C256.427 23.1013 255.425 22.952 254.614 22.952C252.609 22.952 251.051 23.656 249.942 25.064C248.833 26.472 247.958 28.6053 247.318 31.464V49H238.23V15.08H246.102L246.934 21.672C247.745 19.2827 248.918 17.4267 250.454 16.104C252.033 14.7813 253.803 14.12 255.766 14.12Z" fill="#00B4D8"/>
</svg>
